<svg width="582" height="553" viewBox="0 0 582 553" fill="none" xmlns="http://www.w3.org/2000/svg">
<mask id="mask0_127_3" style="mask-type:alpha" maskUnits="userSpaceOnUse" x="0" y="0" width="582" height="553">
<rect width="582" height="553" fill="#D9D9D9"/>
</mask>
<g mask="url(#mask0_127_3)">
<g clip-path="url(#clip0_127_3)">
<g opacity="0.7">
<g opacity="0.7">
<g opacity="0.7">
<g opacity="0.7">
<path opacity="0.7" d="M122.221 531.186L179.912 497.893L238.672 491.917L285.253 518.808L326.706 517.1L362.389 496.399" stroke="white" stroke-width="0.5349" stroke-miterlimit="10"/>
</g>
<g opacity="0.7">
<path opacity="0.7" d="M236.963 504.082L282.262 530.119L330.765 528.198L392.944 492.344" stroke="white" stroke-width="0.5349" stroke-miterlimit="10"/>
</g>
<path opacity="0.7" d="M365.167 497.679C363.885 498.533 361.748 498.533 360.466 497.679C359.184 496.825 359.184 495.758 360.466 494.905C361.748 494.051 363.885 494.051 365.167 494.905C366.449 495.758 366.449 496.825 365.167 497.679Z" fill="white"/>
<path opacity="0.7" d="M395.508 493.624C394.226 494.478 392.089 494.478 390.807 493.624C389.525 492.771 389.525 491.703 390.807 490.85C392.089 489.996 394.226 489.996 395.508 490.85C396.79 491.703 396.79 492.771 395.508 493.624Z" fill="white"/>
<path opacity="0.7" d="M333.329 529.479C332.047 530.333 329.911 530.333 328.629 529.479C327.347 528.625 327.347 527.558 328.629 526.704C329.911 525.851 332.047 525.851 333.329 526.704C334.611 527.558 334.611 528.839 333.329 529.479Z" fill="white"/>
<path opacity="0.7" d="M329.056 518.381C327.774 519.235 325.637 519.235 324.355 518.381C323.073 517.527 323.073 516.46 324.355 515.607C325.637 514.753 327.774 514.753 329.056 515.607C330.338 516.46 330.338 517.741 329.056 518.381Z" fill="white"/>
<path opacity="0.7" d="M241.023 493.411C239.741 494.264 237.604 494.264 236.322 493.411C235.04 492.557 235.04 491.49 236.322 490.636C237.604 489.783 239.741 489.783 241.023 490.636C242.305 491.49 242.305 492.771 241.023 493.411Z" fill="white"/>
<path opacity="0.7" d="M239.313 505.362C238.031 506.216 235.895 506.216 234.613 505.362C233.33 504.509 233.33 503.441 234.613 502.588C235.895 501.734 238.031 501.734 239.313 502.588C240.595 503.441 240.595 504.722 239.313 505.362Z" fill="white"/>
<path opacity="0.7" d="M124.571 532.467C123.289 533.32 121.152 533.32 119.87 532.467C118.588 531.613 118.588 530.546 119.87 529.692C121.152 528.839 123.289 528.839 124.571 529.692C126.067 530.546 126.067 531.826 124.571 532.467Z" fill="white"/>
</g>
<g opacity="0.7">
<g opacity="0.7">
<path opacity="0.7" d="M374.141 516.73L328.842 542.981L280.339 540.846L218.16 505.205" stroke="white" stroke-width="0.5349" stroke-miterlimit="10"/>
</g>
<path opacity="0.7" d="M215.596 506.272C216.878 507.126 219.015 507.126 220.297 506.272C221.579 505.418 221.579 504.351 220.297 503.498C219.015 502.644 216.878 502.644 215.596 503.498C214.314 504.351 214.314 505.632 215.596 506.272Z" fill="white"/>
<path opacity="0.7" d="M277.775 542.127C279.057 542.981 281.193 542.981 282.475 542.127C283.757 541.273 283.757 540.206 282.475 539.352C281.193 538.499 279.057 538.499 277.775 539.352C276.492 540.206 276.492 541.487 277.775 542.127Z" fill="white"/>
<path opacity="0.7" d="M371.791 518.224C373.073 519.078 375.21 519.078 376.492 518.224C377.774 517.37 377.774 516.303 376.492 515.449C375.21 514.596 373.073 514.596 371.791 515.449C370.509 516.09 370.509 517.37 371.791 518.224Z" fill="white"/>
</g>
<g opacity="0.7">
<g opacity="0.7">
<path opacity="0.7" d="M282.262 497.039L224.784 463.746L165.81 457.77L119.229 484.661L77.9905 482.953L42.0934 462.252" stroke="white" stroke-width="0.5349" stroke-miterlimit="10"/>
</g>
<g opacity="0.7">
<path opacity="0.7" d="M167.733 469.935L122.434 495.972L73.9307 494.051L11.752 458.197" stroke="white" stroke-width="0.5349" stroke-miterlimit="10"/>
</g>
<path opacity="0.7" d="M39.3157 463.532C40.5978 464.386 42.7345 464.386 44.0165 463.532C45.2986 462.678 45.2986 461.611 44.0165 460.757C42.7345 459.904 40.5978 459.904 39.3157 460.757C38.0337 461.398 38.0337 462.678 39.3157 463.532Z" fill="white"/>
<path opacity="0.7" d="M8.97422 459.477C10.2563 460.331 12.393 460.331 13.675 459.477C14.9571 458.623 14.9571 457.556 13.675 456.703C12.393 455.849 10.2563 455.849 8.97422 456.703C7.69219 457.556 7.69219 458.623 8.97422 459.477Z" fill="white"/>
<path opacity="0.7" d="M71.3666 495.332C72.6487 496.185 74.7854 496.185 76.0674 495.332C77.3494 494.478 77.3494 493.411 76.0674 492.557C74.7854 491.704 72.6487 491.704 71.3666 492.557C70.0846 493.411 70.0846 494.478 71.3666 495.332Z" fill="white"/>
<path opacity="0.7" d="M75.6401 484.234C76.9222 485.087 79.0589 485.087 80.3409 484.234C81.623 483.38 81.623 482.313 80.3409 481.459C79.0589 480.606 76.9222 480.606 75.6401 481.459C74.3581 482.313 74.3581 483.594 75.6401 484.234Z" fill="white"/>
<path opacity="0.7" d="M163.673 459.264C164.955 460.117 167.092 460.117 168.374 459.264C169.656 458.41 169.656 457.343 168.374 456.489C167.092 455.635 164.955 455.635 163.673 456.489C162.391 457.343 162.391 458.623 163.673 459.264Z" fill="white"/>
<path opacity="0.7" d="M165.383 471.215C166.665 472.069 168.801 472.069 170.083 471.215C171.366 470.362 171.366 469.294 170.083 468.441C168.801 467.587 166.665 467.587 165.383 468.441C163.887 469.294 163.887 470.575 165.383 471.215Z" fill="white"/>
<path opacity="0.7" d="M279.911 498.32C281.193 499.173 283.33 499.173 284.612 498.32C285.894 497.466 285.894 496.399 284.612 495.545C283.33 494.691 281.193 494.691 279.911 495.545C278.629 496.399 278.629 497.466 279.911 498.32Z" fill="white"/>
</g>
</g>
</g>
<g opacity="0.7">
<g opacity="0.7">
<g opacity="0.7">
<g opacity="0.7">
<path opacity="0.7" d="M575.207 358.956L530.122 385.207L481.619 383.286L419.44 347.431" stroke="white" stroke-width="0.5349" stroke-miterlimit="10"/>
</g>
<path opacity="0.7" d="M447.004 352.553C448.286 353.407 450.422 353.407 451.704 352.553C452.986 351.7 452.986 350.633 451.704 349.779C450.422 348.925 448.286 348.925 447.004 349.779C445.722 350.633 445.722 351.913 447.004 352.553Z" fill="white"/>
<path opacity="0.7" d="M416.662 348.498C417.944 349.352 420.081 349.352 421.363 348.498C422.645 347.645 422.645 346.578 421.363 345.724C420.081 344.87 417.944 344.87 416.662 345.724C415.38 346.578 415.38 347.858 416.662 348.498Z" fill="white"/>
<path opacity="0.7" d="M479.054 384.353C480.336 385.207 482.473 385.207 483.755 384.353C485.037 383.5 485.037 382.432 483.755 381.579C482.473 380.725 480.336 380.725 479.054 381.579C477.772 382.432 477.772 383.713 479.054 384.353Z" fill="white"/>
<path opacity="0.7" d="M483.328 373.469C484.61 374.322 486.747 374.322 488.029 373.469C489.311 372.615 489.311 371.548 488.029 370.694C486.747 369.841 484.61 369.841 483.328 370.694C482.046 371.548 482.046 372.615 483.328 373.469Z" fill="white"/>
<path opacity="0.7" d="M572.857 360.45C574.139 361.304 576.276 361.304 577.558 360.45C578.84 359.596 578.84 358.529 577.558 357.676C576.276 356.822 574.139 356.822 572.857 357.676C571.575 358.316 571.575 359.596 572.857 360.45Z" fill="white"/>
</g>
<g opacity="0.7">
<g opacity="0.7">
<path opacity="0.7" d="M408.97 436.214L466.448 403.134L525.422 396.945L572.002 423.836" stroke="white" stroke-width="0.5349" stroke-miterlimit="10"/>
</g>
<g opacity="0.7">
<path opacity="0.7" d="M523.498 409.11L568.797 435.361" stroke="white" stroke-width="0.5349" stroke-miterlimit="10"/>
</g>
<path opacity="0.7" d="M527.558 398.652C526.276 399.506 524.139 399.506 522.857 398.652C521.575 397.799 521.575 396.732 522.857 395.878C524.139 395.024 526.276 395.024 527.558 395.878C528.84 396.518 528.84 397.799 527.558 398.652Z" fill="white"/>
<path opacity="0.7" d="M525.849 410.604C524.567 411.458 522.43 411.458 521.148 410.604C519.866 409.75 519.866 408.683 521.148 407.829C522.43 406.976 524.567 406.976 525.849 407.829C527.131 408.683 527.131 409.75 525.849 410.604Z" fill="white"/>
<path opacity="0.7" d="M411.32 437.708C410.038 438.562 407.902 438.562 406.619 437.708C405.337 436.855 405.337 435.787 406.619 434.934C407.902 434.08 410.038 434.08 411.32 434.934C412.602 435.787 412.602 436.855 411.32 437.708Z" fill="white"/>
</g>
<g opacity="0.7">
<g opacity="0.7">
<path opacity="0.7" d="M415.594 469.295L473.072 436.214L532.046 430.025L578.626 456.916" stroke="white" stroke-width="0.5349" stroke-miterlimit="10"/>
</g>
<g opacity="0.7">
<path opacity="0.7" d="M530.336 442.19L575.635 468.441" stroke="white" stroke-width="0.5349" stroke-miterlimit="10"/>
</g>
<path opacity="0.7" d="M534.182 431.519C532.9 432.373 530.763 432.373 529.481 431.519C528.199 430.665 528.199 429.598 529.481 428.745C530.763 427.891 532.9 427.891 534.182 428.745C535.464 429.598 535.464 430.879 534.182 431.519Z" fill="white"/>
<path opacity="0.7" d="M532.687 443.684C531.405 444.538 529.268 444.538 527.986 443.684C526.704 442.83 526.704 441.763 527.986 440.91C529.268 440.056 531.405 440.056 532.687 440.91C533.969 441.55 533.969 442.83 532.687 443.684Z" fill="white"/>
<path opacity="0.7" d="M417.944 470.575C416.662 471.429 414.526 471.429 413.244 470.575C411.961 469.721 411.961 468.654 413.244 467.8C414.526 466.947 416.662 466.947 417.944 467.8C419.226 468.654 419.226 469.935 417.944 470.575Z" fill="white"/>
</g>
</g>
</g>
<g opacity="0.7">
<g opacity="0.7">
<g opacity="0.7">
<g opacity="0.7">
<path opacity="0.7" d="M114.315 279.136L171.793 312.43L230.553 318.406L277.348 291.515L318.586 293.222L354.483 313.924" stroke="white" stroke-width="0.5349" stroke-miterlimit="10"/>
</g>
<g opacity="0.7">
<path opacity="0.7" d="M228.844 306.241L274.142 280.204L322.646 282.124L384.825 317.979" stroke="white" stroke-width="0.5349" stroke-miterlimit="10"/>
</g>
<path opacity="0.7" d="M357.048 312.644C355.766 311.79 353.629 311.79 352.347 312.644C351.065 313.497 351.065 314.564 352.347 315.418C353.629 316.272 355.766 316.272 357.048 315.418C358.33 314.564 358.33 313.497 357.048 312.644Z" fill="white"/>
<path opacity="0.7" d="M387.389 316.699C386.107 315.845 383.97 315.845 382.688 316.699C381.406 317.552 381.406 318.619 382.688 319.473C383.97 320.327 386.107 320.327 387.389 319.473C388.885 318.619 388.885 317.552 387.389 316.699Z" fill="white"/>
<path opacity="0.7" d="M325.21 280.844C323.928 279.99 321.792 279.99 320.509 280.844C319.227 281.698 319.227 282.765 320.509 283.618C321.792 284.472 323.928 284.472 325.21 283.618C326.492 282.765 326.492 281.484 325.21 280.844Z" fill="white"/>
<path opacity="0.7" d="M320.937 291.728C319.655 290.875 317.518 290.875 316.236 291.728C314.954 292.582 314.954 293.649 316.236 294.503C317.518 295.357 319.655 295.357 320.937 294.503C322.219 293.863 322.219 292.582 320.937 291.728Z" fill="white"/>
<path opacity="0.7" d="M232.903 316.912C231.621 316.058 229.485 316.058 228.203 316.912C226.921 317.766 226.921 318.833 228.203 319.686C229.485 320.54 231.621 320.54 232.903 319.686C234.186 318.833 234.186 317.552 232.903 316.912Z" fill="white"/>
<path opacity="0.7" d="M231.194 304.961C229.912 304.107 227.776 304.107 226.494 304.961C225.211 305.814 225.211 306.881 226.494 307.735C227.776 308.589 229.912 308.589 231.194 307.735C232.476 306.881 232.476 305.601 231.194 304.961Z" fill="white"/>
<path opacity="0.7" d="M116.666 277.856C115.384 277.002 113.247 277.002 111.965 277.856C110.683 278.71 110.683 279.777 111.965 280.631C113.247 281.484 115.384 281.484 116.666 280.631C117.948 279.777 117.948 278.496 116.666 277.856Z" fill="white"/>
</g>
<g opacity="0.7">
<g opacity="0.7">
<path opacity="0.7" d="M480.764 232.611L423.286 265.691L364.312 271.88L317.732 244.989L276.279 246.697L240.596 267.185" stroke="white" stroke-width="0.5349" stroke-miterlimit="10"/>
</g>
<g opacity="0.7">
<path opacity="0.7" d="M366.022 259.715L320.723 233.465L272.219 235.385L210.254 271.24" stroke="white" stroke-width="0.5349" stroke-miterlimit="10"/>
</g>
<path opacity="0.7" d="M237.818 266.118C239.1 265.264 241.237 265.264 242.519 266.118C243.801 266.972 243.801 268.039 242.519 268.893C241.237 269.746 239.1 269.746 237.818 268.893C236.536 268.039 236.536 266.758 237.818 266.118Z" fill="white"/>
<path opacity="0.7" d="M207.476 270.173C208.758 269.319 210.895 269.319 212.177 270.173C213.459 271.027 213.459 272.094 212.177 272.947C210.895 273.801 208.758 273.801 207.476 272.947C206.194 272.094 206.194 270.813 207.476 270.173Z" fill="white"/>
<path opacity="0.7" d="M269.655 234.318C270.937 233.465 273.074 233.465 274.356 234.318C275.638 235.172 275.638 236.239 274.356 237.093C273.074 237.946 270.937 237.946 269.655 237.093C268.373 236.239 268.373 234.959 269.655 234.318Z" fill="white"/>
<path opacity="0.7" d="M273.929 245.203C275.211 244.349 277.347 244.349 278.629 245.203C279.912 246.056 279.912 247.124 278.629 247.977C277.347 248.831 275.211 248.831 273.929 247.977C272.647 247.124 272.647 246.056 273.929 245.203Z" fill="white"/>
<path opacity="0.7" d="M362.175 270.386C363.457 269.533 365.594 269.533 366.876 270.386C368.158 271.24 368.158 272.307 366.876 273.161C365.594 274.015 363.457 274.015 362.175 273.161C360.893 272.307 360.893 271.027 362.175 270.386Z" fill="white"/>
<path opacity="0.7" d="M363.671 258.222C364.953 257.368 367.09 257.368 368.372 258.222C369.654 259.075 369.654 260.142 368.372 260.996C367.09 261.85 364.953 261.85 363.671 260.996C362.389 260.356 362.389 259.075 363.671 258.222Z" fill="white"/>
<path opacity="0.7" d="M478.414 231.33C479.696 230.477 481.832 230.477 483.114 231.33C484.396 232.184 484.396 233.251 483.114 234.105C481.832 234.959 479.696 234.959 478.414 234.105C477.132 233.251 477.132 231.971 478.414 231.33Z" fill="white"/>
</g>
<g opacity="0.7">
<g opacity="0.7">
<path opacity="0.7" d="M274.142 313.284L216.664 346.578L157.904 352.554L111.11 325.663L69.8712 327.37L33.9741 348.072" stroke="white" stroke-width="0.5349" stroke-miterlimit="10"/>
</g>
<g opacity="0.7">
<path opacity="0.7" d="M159.614 340.388L114.315 314.351L65.8114 316.272L3.63257 352.127" stroke="white" stroke-width="0.5349" stroke-miterlimit="10"/>
</g>
<path opacity="0.7" d="M31.4099 346.791C32.6919 345.937 34.8287 345.937 36.1107 346.791C37.3927 347.645 37.3927 348.712 36.1107 349.566C34.8287 350.419 32.6919 350.419 31.4099 349.566C30.1279 348.712 30.1279 347.645 31.4099 346.791Z" fill="white"/>
<path opacity="0.7" d="M1.06844 350.846C2.35047 350.206 4.27353 350.206 5.76924 350.846C7.05128 351.7 7.05128 352.767 5.76924 353.621C4.4872 354.474 2.35047 354.474 1.06844 353.621C-0.427272 352.767 -0.427272 351.7 1.06844 350.846Z" fill="white"/>
<path opacity="0.7" d="M65.5976 318.193C67.4857 318.193 69.0164 317.333 69.0164 316.272C69.0164 315.211 67.4857 314.351 65.5976 314.351C63.7095 314.351 62.1788 315.211 62.1788 316.272C62.1788 317.333 63.7095 318.193 65.5976 318.193Z" fill="white"/>
<path opacity="0.7" d="M67.5207 326.089C68.8028 325.236 70.9395 325.236 72.2215 326.089C73.5036 326.943 73.5036 328.01 72.2215 328.864C70.9395 329.717 68.8028 329.717 67.5207 328.864C66.2387 328.01 66.2387 326.729 67.5207 326.089Z" fill="white"/>
<path opacity="0.7" d="M155.554 351.059C156.836 350.206 158.973 350.206 160.255 351.059C161.537 351.913 161.537 352.98 160.255 353.834C158.973 354.688 156.836 354.688 155.554 353.834C154.272 352.98 154.272 351.7 155.554 351.059Z" fill="white"/>
<path opacity="0.7" d="M157.263 339.108C158.545 338.254 160.682 338.254 161.964 339.108C163.246 339.962 163.246 341.029 161.964 341.883C160.682 342.736 158.545 342.736 157.263 341.883C155.981 341.029 155.981 339.748 157.263 339.108Z" fill="white"/>
<path opacity="0.7" d="M271.792 312.004C273.074 311.15 275.211 311.15 276.493 312.004C277.775 312.857 277.775 313.924 276.493 314.778C275.211 315.632 273.074 315.632 271.792 314.778C270.51 313.924 270.51 312.857 271.792 312.004Z" fill="white"/>
</g>
</g>
</g>
</g>
<path d="M333.497 189.239C333.497 198.077 330.946 204.951 326.433 208.879C325.059 210.057 316.621 215.949 315.051 216.735C309.165 219.092 308.576 213.2 300.334 208.486C281.889 197.88 266.975 171.955 266.975 150.744C266.975 142.692 261.677 141.513 265.406 137.389C266.387 136.407 275.021 130.318 276.198 129.533C282.281 125.605 290.915 125.997 300.531 131.497C318.584 142.102 333.497 167.831 333.497 189.239Z" fill="url(#paint0_linear_127_3)"/>
<path d="M325.648 194.542C325.648 215.753 310.734 224.395 292.289 213.789C273.843 203.183 258.93 177.258 258.93 156.047C258.93 134.836 273.843 126.194 292.289 136.8C310.734 147.405 325.648 173.33 325.648 194.542Z" fill="url(#paint1_linear_127_3)"/>
<path d="M313.121 211.351C324.665 204.68 324.71 183.129 313.222 163.215C301.735 143.3 283.064 132.565 271.52 139.236C259.976 145.906 259.931 167.458 271.419 187.372C282.906 207.286 301.577 218.022 313.121 211.351Z" stroke="#4D0063" stroke-width="0.6873" stroke-miterlimit="10"/>
<path d="M301.512 165.474V158.6L296.017 155.458V161.743L290.523 158.6V152.315L285.028 149.173V155.458L279.534 152.315V183.543L285.028 186.686V192.97L290.523 196.113V189.828L296.017 192.97V199.255L301.512 202.398V195.524C304.063 195.916 306.025 194.738 306.614 191.988C307.202 189.435 306.614 185.704 304.847 182.365C306.614 181.186 307.398 178.24 306.614 174.901C306.025 171.563 304.063 168.027 301.512 165.474ZM285.225 161.743L298.764 169.599C300.334 170.384 301.512 172.545 301.512 174.312C301.512 176.08 300.334 176.669 298.764 175.883L285.225 168.027V161.743ZM298.764 188.257L285.225 180.401V174.116L298.764 181.972C300.334 182.758 301.512 184.918 301.512 186.686C301.512 188.453 300.334 189.239 298.764 188.257Z" fill="white"/>
<path d="M384.672 115.189C384.672 120.699 383.082 124.985 380.268 127.434C379.411 128.168 374.151 131.842 373.172 132.332C369.502 133.801 369.135 130.128 363.996 127.189C352.496 120.576 343.198 104.413 343.198 91.1884C343.198 86.168 339.895 85.4333 342.219 82.8618C342.831 82.2496 348.214 78.4536 348.948 77.9638C352.741 75.5148 358.124 75.7597 364.119 79.1883C375.374 85.8006 384.672 101.842 384.672 115.189Z" fill="url(#paint2_linear_127_3)"/>
<path d="M379.779 118.495C379.779 131.719 370.48 137.107 358.98 130.495C347.48 123.883 338.182 107.719 338.182 94.4945C338.182 81.2698 347.48 75.882 358.98 82.4943C370.48 89.1067 379.779 105.27 379.779 118.495Z" fill="url(#paint3_linear_127_3)"/>
<path d="M371.968 128.975C379.166 124.816 379.194 111.379 372.032 98.9632C364.869 86.5474 353.229 79.8539 346.032 84.013C338.834 88.1721 338.806 101.609 345.968 114.025C353.131 126.44 364.771 133.134 371.968 128.975Z" stroke="#4D0063" stroke-width="0.6873" stroke-miterlimit="10"/>
<path d="M364.73 100.372V96.0864L361.305 94.1271V98.0456L357.879 96.0864V92.1679L354.454 90.2087V94.1271L351.028 92.1679V111.638L354.454 113.597V117.515L357.879 119.474V115.556L361.305 117.515V121.434L364.73 123.393V119.107C366.321 119.352 367.544 118.617 367.911 116.903C368.278 115.311 367.911 112.984 366.81 110.903C367.911 110.168 368.401 108.331 367.911 106.25C367.544 104.168 366.321 101.964 364.73 100.372ZM354.576 98.0456L363.018 102.944C363.996 103.433 364.73 104.78 364.73 105.882C364.73 106.984 363.996 107.352 363.018 106.862L354.576 101.964V98.0456ZM363.018 114.576L354.576 109.678V105.76L363.018 110.658C363.996 111.148 364.73 112.495 364.73 113.597C364.73 114.699 363.996 115.189 363.018 114.576Z" fill="white"/>
<path d="M258.704 70.1156C258.704 75.096 257.266 78.9697 254.723 81.1832C253.949 81.8473 249.194 85.1675 248.309 85.6102C244.992 86.9384 244.66 83.6181 240.016 80.9618C229.622 74.9853 221.218 60.3761 221.218 48.4231C221.218 43.8853 218.232 43.2213 220.333 40.8971C220.886 40.3437 225.751 36.9127 226.415 36.47C229.843 34.2565 234.708 34.4779 240.127 37.5768C250.3 43.5533 258.704 58.0519 258.704 70.1156Z" fill="url(#paint4_linear_127_3)"/>
<path d="M254.281 73.1039C254.281 85.0569 245.877 89.9267 235.482 83.9502C225.088 77.9736 216.684 63.3644 216.684 51.4114C216.684 39.4583 225.088 34.5886 235.482 40.5651C245.877 46.5416 254.281 61.1509 254.281 73.1039Z" fill="url(#paint5_linear_127_3)"/>
<path d="M247.221 82.5761C253.727 78.8169 253.752 66.6723 247.279 55.4502C240.805 44.2282 230.284 38.1784 223.779 41.9376C217.273 45.6967 217.248 57.8414 223.721 69.0634C230.195 80.2854 240.716 86.3352 247.221 82.5761Z" stroke="#4D0063" stroke-width="0.6873" stroke-miterlimit="10"/>
<path d="M240.679 56.7237V52.8501L237.583 51.0792V54.6209L234.487 52.8501V49.3084L231.391 47.5376V51.0792L228.295 49.3084V66.9059L231.391 68.6767V72.2184L234.487 73.9892V70.4476L237.583 72.2184V75.76L240.679 77.5308V73.6572C242.117 73.8785 243.223 73.2145 243.554 71.665C243.886 70.2262 243.554 68.1234 242.559 66.2419C243.554 65.5778 243.997 63.9177 243.554 62.0362C243.223 60.1547 242.117 58.1625 240.679 56.7237ZM231.501 54.6209L239.131 59.0479C240.016 59.4906 240.679 60.7081 240.679 61.7041C240.679 62.7002 240.016 63.0323 239.131 62.5896L231.501 58.1625V54.6209ZM239.131 69.5622L231.501 65.1351V61.5935L239.131 66.0205C240.016 66.4632 240.679 67.6807 240.679 68.6767C240.679 69.6728 240.016 70.1155 239.131 69.5622Z" fill="white"/>
<path d="M295.036 491.143L156.498 411.403C150.219 407.868 150.219 389.014 152.77 382.729L282.674 315.363C289.738 311.239 300.727 310.846 307.006 314.381L448.683 386.657C453.785 394.906 451.038 414.349 443.777 418.474L319.565 490.357C312.108 494.285 301.119 494.678 295.036 491.143Z" fill="url(#paint6_linear_127_3)"/>
<path d="M295.036 470.52L156.498 390.781C150.219 387.246 151.004 380.961 158.264 376.837L282.477 304.954C289.542 300.829 300.53 300.437 306.81 303.972L445.347 383.711C451.627 387.246 450.842 393.531 443.581 397.655L319.368 469.538C312.108 473.663 301.119 474.056 295.036 470.52Z" fill="url(#paint7_linear_127_3)"/>
<path d="M294.84 461.29L172.589 390.781C166.31 387.246 167.095 380.961 174.355 376.837L282.87 314.185C289.934 310.06 300.923 309.668 307.202 313.203L429.453 383.711C435.732 387.246 434.947 393.531 427.687 397.656L319.172 460.308C311.912 464.432 300.923 464.825 294.84 461.29Z" fill="url(#paint8_linear_127_3)"/>
<path opacity="0.1" d="M299.746 436.204C352.307 436.204 394.917 415.452 394.917 389.853C394.917 364.254 352.307 343.502 299.746 343.502C247.184 343.502 204.575 364.254 204.575 389.853C204.575 415.452 247.184 436.204 299.746 436.204Z" fill="url(#paint9_radial_127_3)"/>
<path opacity="0.1" d="M358.418 414.6C327.218 429.919 276.394 429.919 245.194 414.6C213.993 399.28 213.993 374.73 245.194 359.411C276.394 344.092 327.218 344.092 358.418 359.411C389.618 374.73 389.618 399.28 358.418 414.6Z" fill="url(#paint10_radial_127_3)"/>
<path d="M233.028 356.072L372.546 357.25V376.694C372.546 387.103 365.678 397.316 352.139 405.172C324.863 420.885 280.711 420.885 253.435 405.172C239.896 397.316 233.028 386.907 233.028 376.694V356.072Z" fill="url(#paint11_linear_127_3)"/>
<path d="M239.896 353.715H237.541V390.714H239.896V353.715Z" fill="#4D0063"/>
<path d="M247.941 353.715H245.586V396.334H247.941V353.715Z" fill="#4D0063"/>
<path d="M255.79 353.715H253.435V396.334H255.79V353.715Z" fill="#4D0063"/>
<path d="M263.836 353.715H261.481V396.334H263.836V353.715Z" fill="#4D0063"/>
<path d="M271.881 353.715H269.526V396.334H271.881V353.715Z" fill="#4D0063"/>
<path d="M279.926 353.715H277.571V396.334H279.926V353.715Z" fill="#4D0063"/>
<path d="M287.971 353.715H285.617V396.334H287.971V353.715Z" fill="#4D0063"/>
<path d="M296.017 353.715H293.662V396.334H296.017V353.715Z" fill="#4D0063"/>
<path d="M304.063 353.715H301.708V396.334H304.063V353.715Z" fill="#4D0063"/>
<path d="M312.108 353.715H309.753V396.334H312.108V353.715Z" fill="#4D0063"/>
<path d="M319.957 353.715H317.602V396.334H319.957V353.715Z" fill="#4D0063"/>
<path d="M328.002 353.715H325.647V396.334H328.002V353.715Z" fill="#4D0063"/>
<path d="M336.048 353.715H333.693V396.334H336.048V353.715Z" fill="#4D0063"/>
<path d="M344.093 353.715H341.738V396.334H344.093V353.715Z" fill="#4D0063"/>
<path d="M352.139 353.715H349.784V396.334H352.139V353.715Z" fill="#4D0063"/>
<path d="M360.184 353.715H357.829V396.334H360.184V353.715Z" fill="#4D0063"/>
<path d="M368.229 353.715H365.875V389.841H368.229V353.715Z" fill="#4D0063"/>
<path d="M302.885 398.299C341.466 398.299 372.743 380.273 372.743 358.036C372.743 335.8 341.466 317.774 302.885 317.774C264.304 317.774 233.028 335.8 233.028 358.036C233.028 380.273 264.304 398.299 302.885 398.299Z" fill="url(#paint12_linear_127_3)"/>
<path d="M302.885 391.228C336.59 391.228 363.912 375.488 363.912 356.072C363.912 336.656 336.59 320.916 302.885 320.916C269.181 320.916 241.858 336.656 241.858 356.072C241.858 375.488 269.181 391.228 302.885 391.228Z" stroke="#4D0063" stroke-width="1.1865" stroke-miterlimit="10"/>
<path d="M295.428 334.272L286.598 329.165L278.553 333.879L286.598 338.593L278.553 343.306L270.507 338.593L262.462 343.306L270.507 348.02L262.462 352.733L302.885 376.105L310.93 371.392L318.976 376.105L327.021 371.392L318.976 366.678L327.021 361.964L335.067 366.678L343.112 361.964L334.282 356.858C336.833 353.912 336.44 350.377 333.693 347.627C330.75 344.877 325.648 342.913 319.957 342.913C319.761 339.575 316.621 336.629 311.715 334.861C306.613 332.897 300.53 332.7 295.428 334.272ZM278.553 352.537L298.764 340.949C300.923 339.575 304.651 339.575 306.81 340.949C308.968 342.324 308.968 344.288 306.81 345.663L286.598 357.251L278.553 352.537ZM322.9 354.894L302.689 366.482L294.643 361.768L314.855 350.18C317.014 348.805 320.742 348.805 322.9 350.18C325.255 351.359 325.255 353.519 322.9 354.894Z" fill="white"/>
<path d="M233.028 333.29L372.546 334.468V353.912C372.546 364.321 365.678 374.534 352.139 382.39C324.863 398.102 280.711 398.102 253.435 382.39C239.896 374.534 233.028 364.125 233.028 353.912V333.29Z" fill="url(#paint13_linear_127_3)"/>
<path d="M239.896 330.736H237.541V390.714H239.896V330.736Z" fill="#4D0063"/>
<path d="M247.941 330.736H245.586V399.694H247.941V330.736Z" fill="#4D0063"/>
<path d="M255.79 330.736H253.435V405.165H255.79V330.736Z" fill="#4D0063"/>
<path d="M263.836 330.736H261.481V409.244H263.836V330.736Z" fill="#4D0063"/>
<path d="M271.881 330.736H269.526V412.078H271.881V330.736Z" fill="#4D0063"/>
<path d="M279.926 330.736H277.571V414.217H279.926V330.736Z" fill="#4D0063"/>
<path d="M287.971 330.736H285.617V415.659H287.971V330.736Z" fill="#4D0063"/>
<path d="M296.017 330.736H293.662V416.957H296.017V330.736Z" fill="#4D0063"/>
<path d="M304.063 330.736H301.708V416.957H304.063V330.736Z" fill="#4D0063"/>
<path d="M312.108 330.736H309.753V416.957H312.108V330.736Z" fill="#4D0063"/>
<path d="M319.957 330.736H317.602V415.584H319.957V330.736Z" fill="#4D0063"/>
<path d="M328.002 330.736H325.647V414.237H328.002V330.736Z" fill="#4D0063"/>
<path d="M336.048 330.736H333.693V412.05H336.048V330.736Z" fill="#4D0063"/>
<path d="M344.093 330.736H341.738V409.357H344.093V330.736Z" fill="#4D0063"/>
<path d="M352.139 330.736H349.784V405.262H352.139V330.736Z" fill="#4D0063"/>
<path d="M360.184 330.736H357.829V399.878H360.184V330.736Z" fill="#4D0063"/>
<path d="M368.229 330.736H365.875V390.79H368.229V330.736Z" fill="#4D0063"/>
<path d="M302.885 375.32C341.466 375.32 372.743 357.294 372.743 335.058C372.743 312.821 341.466 294.795 302.885 294.795C264.304 294.795 233.028 312.821 233.028 335.058C233.028 357.294 264.304 375.32 302.885 375.32Z" fill="url(#paint14_linear_127_3)"/>
<path d="M302.885 368.446C336.59 368.446 363.912 352.706 363.912 333.29C363.912 313.874 336.59 298.134 302.885 298.134C269.181 298.134 241.858 313.874 241.858 333.29C241.858 352.706 269.181 368.446 302.885 368.446Z" stroke="#4D0063" stroke-width="1.1865" stroke-miterlimit="10"/>
<path d="M295.428 311.293L286.598 306.186L278.553 310.9L286.598 315.614L278.553 320.327L270.507 315.614L262.462 320.327L270.507 325.041L262.462 329.754L302.885 353.126L310.93 348.413L318.976 353.126L327.021 348.413L318.976 343.699L327.021 338.985L335.067 343.699L343.112 338.985L334.282 333.879C336.833 330.933 336.44 327.398 333.693 324.648C330.75 321.898 325.648 319.934 319.957 319.934C319.761 316.596 316.621 313.65 311.715 311.882C306.613 310.114 300.53 309.918 295.428 311.293ZM278.553 329.558L298.764 317.97C300.923 316.596 304.651 316.596 306.81 317.97C308.968 319.345 308.968 321.309 306.81 322.684L286.598 334.272L278.553 329.558ZM322.9 331.915L302.689 343.503L294.643 338.789L314.855 327.201C317.014 325.826 320.742 325.826 322.9 327.201C325.255 328.576 325.255 330.54 322.9 331.915Z" fill="white"/>
<path d="M233.028 310.311L372.546 311.489V330.933C372.546 341.342 365.678 351.555 352.139 359.411C324.863 375.123 280.711 375.123 253.435 359.411C239.896 351.555 233.028 341.146 233.028 330.933V310.311Z" fill="url(#paint15_linear_127_3)"/>
<path d="M239.896 307.758H237.541V373.356H239.896V307.758Z" fill="#4D0063"/>
<path d="M247.941 307.758H245.586V373.356H247.941V307.758Z" fill="#4D0063"/>
<path d="M255.79 307.758H253.435V373.356H255.79V307.758Z" fill="#4D0063"/>
<path d="M263.836 307.758H261.481V373.356H263.836V307.758Z" fill="#4D0063"/>
<path d="M271.881 307.758H269.526V373.356H271.881V307.758Z" fill="#4D0063"/>
<path d="M279.926 307.758H277.571V373.356H279.926V307.758Z" fill="#4D0063"/>
<path d="M287.971 307.758H285.617V373.356H287.971V307.758Z" fill="#4D0063"/>
<path d="M296.017 307.758H293.662V373.356H296.017V307.758Z" fill="#4D0063"/>
<path d="M304.063 307.758H301.708V373.356H304.063V307.758Z" fill="#4D0063"/>
<path d="M312.108 307.758H309.753V373.356H312.108V307.758Z" fill="#4D0063"/>
<path d="M319.957 307.758H317.602V373.356H319.957V307.758Z" fill="#4D0063"/>
<path d="M328.002 307.758H325.647V373.356H328.002V307.758Z" fill="#4D0063"/>
<path d="M336.048 307.758H333.693V373.356H336.048V307.758Z" fill="#4D0063"/>
<path d="M344.093 307.758H341.738V373.356H344.093V307.758Z" fill="#4D0063"/>
<path d="M352.139 307.758H349.784V373.356H352.139V307.758Z" fill="#4D0063"/>
<path d="M360.184 307.758H357.829V373.356H360.184V307.758Z" fill="#4D0063"/>
<path d="M368.229 307.758H365.875V373.356H368.229V307.758Z" fill="#4D0063"/>
<path d="M302.885 352.341C341.466 352.341 372.743 334.315 372.743 312.078C372.743 289.842 341.466 271.816 302.885 271.816C264.304 271.816 233.028 289.842 233.028 312.078C233.028 334.315 264.304 352.341 302.885 352.341Z" fill="url(#paint16_linear_127_3)"/>
<path d="M345.859 335.254C322.116 349.002 283.458 349.002 259.715 335.254C235.971 321.506 235.971 299.116 259.715 285.368C283.458 271.62 322.116 271.62 345.859 285.368C369.799 299.116 369.799 321.506 345.859 335.254Z" stroke="#4D0063" stroke-width="1.1865" stroke-miterlimit="10"/>
<path d="M295.428 288.51L286.598 283.404L278.553 288.117L286.598 292.831L278.553 297.544L270.507 292.831L262.462 297.544L270.507 302.258L262.462 306.972L302.885 330.344L310.93 325.63L318.976 330.344L327.021 325.63L318.976 320.916L327.021 316.203L335.067 320.916L343.112 316.203L334.282 311.096C336.833 308.15 336.44 304.615 333.693 301.865C330.75 299.116 325.648 297.152 319.957 297.152C319.761 293.813 316.621 290.867 311.715 289.099C306.613 287.135 300.53 286.939 295.428 288.51ZM278.553 306.579L298.764 294.991C300.923 293.616 304.651 293.616 306.81 294.991C308.968 296.366 308.968 298.33 306.81 299.705L286.598 311.293L278.553 306.579ZM322.9 308.936L302.689 320.523L294.643 315.81L314.855 304.222C317.014 302.847 320.742 302.847 322.9 304.222C325.255 305.597 325.255 307.757 322.9 308.936Z" fill="white"/>
<path d="M233.028 287.331L372.546 288.51V307.953C372.546 318.363 365.678 328.576 352.139 336.432C324.863 352.144 280.711 352.144 253.435 336.432C239.896 328.576 233.028 318.166 233.028 307.953V287.331Z" fill="url(#paint17_linear_127_3)"/>
<path d="M239.896 284.975H237.541V350.573H239.896V284.975Z" fill="#4D0063"/>
<path d="M247.941 284.975H245.586V350.573H247.941V284.975Z" fill="#4D0063"/>
<path d="M255.79 284.975H253.435V350.573H255.79V284.975Z" fill="#4D0063"/>
<path d="M263.836 284.975H261.481V350.573H263.836V284.975Z" fill="#4D0063"/>
<path d="M271.881 284.975H269.526V350.573H271.881V284.975Z" fill="#4D0063"/>
<path d="M279.926 284.975H277.571V350.573H279.926V284.975Z" fill="#4D0063"/>
<path d="M287.972 284.975H285.617V350.573H287.972V284.975Z" fill="#4D0063"/>
<path d="M296.017 284.975H293.663V350.573H296.017V284.975Z" fill="#4D0063"/>
<path d="M304.063 284.975H301.708V350.573H304.063V284.975Z" fill="#4D0063"/>
<path d="M312.108 284.975H309.753V350.573H312.108V284.975Z" fill="#4D0063"/>
<path d="M319.957 284.975H317.602V350.573H319.957V284.975Z" fill="#4D0063"/>
<path d="M328.002 284.975H325.648V350.573H328.002V284.975Z" fill="#4D0063"/>
<path d="M336.048 284.975H333.693V350.573H336.048V284.975Z" fill="#4D0063"/>
<path d="M344.093 284.975H341.738V350.573H344.093V284.975Z" fill="#4D0063"/>
<path d="M352.139 284.975H349.784V350.573H352.139V284.975Z" fill="#4D0063"/>
<path d="M360.184 284.975H357.829V350.573H360.184V284.975Z" fill="#4D0063"/>
<path d="M368.229 284.975H365.875V350.573H368.229V284.975Z" fill="#4D0063"/>
<path d="M352.139 317.774C324.863 333.486 280.711 333.486 253.435 317.774C226.16 302.062 226.16 276.529 253.435 260.817C280.711 245.105 324.863 245.105 352.139 260.817C379.414 276.529 379.414 302.062 352.139 317.774Z" fill="url(#paint18_linear_127_3)"/>
<path d="M302.885 322.487C336.589 322.487 363.912 306.748 363.912 287.331C363.912 267.915 336.589 252.176 302.885 252.176C269.181 252.176 241.858 267.915 241.858 287.331C241.858 306.748 269.181 322.487 302.885 322.487Z" stroke="#4D0063" stroke-width="1.1865" stroke-miterlimit="10"/>
<path d="M295.428 265.531L286.598 260.425L278.553 265.138L286.598 269.852L278.553 274.566L270.507 269.852L262.462 274.566L270.507 279.279L262.462 283.993L302.885 307.365L310.93 302.651L318.976 307.365L327.021 302.651L318.976 297.938L327.021 293.224L335.067 297.938L343.112 293.224L334.282 288.117C336.833 285.171 336.44 281.636 333.693 278.887C330.75 276.137 325.648 274.173 319.957 274.173C319.761 270.834 316.621 267.888 311.715 266.12C306.613 264.156 300.53 264.156 295.428 265.531ZM278.553 283.797L298.764 272.209C300.923 270.834 304.651 270.834 306.81 272.209C308.968 273.584 308.968 275.548 306.81 276.923L286.598 288.51L278.553 283.797ZM322.9 286.153L302.689 297.741L294.643 293.027L314.855 281.44C317.014 280.065 320.742 280.065 322.9 281.44C325.255 282.618 325.255 284.779 322.9 286.153Z" fill="white"/>
<path d="M233.028 264.549L372.546 265.727V285.171C372.546 295.581 365.678 305.793 352.139 313.649C324.863 329.362 280.711 329.362 253.435 313.649C239.896 305.793 233.028 295.384 233.028 285.171V264.549Z" fill="url(#paint19_linear_127_3)"/>
<path d="M239.896 261.996H237.541V327.594H239.896V261.996Z" fill="#4D0063"/>
<path d="M247.941 261.996H245.586V327.594H247.941V261.996Z" fill="#4D0063"/>
<path d="M255.79 261.996H253.435V327.594H255.79V261.996Z" fill="#4D0063"/>
<path d="M263.835 261.996H261.481V327.594H263.835V261.996Z" fill="#4D0063"/>
<path d="M271.881 261.996H269.526V327.594H271.881V261.996Z" fill="#4D0063"/>
<path d="M279.926 261.996H277.571V327.594H279.926V261.996Z" fill="#4D0063"/>
<path d="M287.972 261.996H285.617V327.594H287.972V261.996Z" fill="#4D0063"/>
<path d="M296.017 261.996H293.662V327.594H296.017V261.996Z" fill="#4D0063"/>
<path d="M304.062 261.996H301.708V327.594H304.062V261.996Z" fill="#4D0063"/>
<path d="M312.108 261.996H309.753V327.594H312.108V261.996Z" fill="#4D0063"/>
<path d="M319.957 261.996H317.602V327.594H319.957V261.996Z" fill="#4D0063"/>
<path d="M328.002 261.996H325.647V327.594H328.002V261.996Z" fill="#4D0063"/>
<path d="M336.048 261.996H333.693V327.594H336.048V261.996Z" fill="#4D0063"/>
<path d="M344.093 261.996H341.738V327.594H344.093V261.996Z" fill="#4D0063"/>
<path d="M352.139 261.996H349.784V327.594H352.139V261.996Z" fill="#4D0063"/>
<path d="M360.184 261.996H357.829V327.594H360.184V261.996Z" fill="#4D0063"/>
<path d="M368.229 261.996H365.874V327.594H368.229V261.996Z" fill="#4D0063"/>
<path d="M352.138 294.795C324.863 310.507 280.711 310.507 253.435 294.795C226.159 279.083 226.159 253.551 253.435 237.839C280.711 222.126 324.863 222.126 352.138 237.839C379.414 253.551 379.414 279.083 352.138 294.795Z" fill="url(#paint20_linear_127_3)"/>
<path d="M302.885 299.705C336.589 299.705 363.912 283.965 363.912 264.549C363.912 245.133 336.589 229.393 302.885 229.393C269.181 229.393 241.858 245.133 241.858 264.549C241.858 283.965 269.181 299.705 302.885 299.705Z" stroke="#4D0063" stroke-width="1.1865" stroke-miterlimit="10"/>
<path d="M295.428 242.552L286.598 237.446L278.553 242.159L286.598 246.873L278.553 251.586L270.507 246.873L262.462 251.586L270.507 256.3L262.462 261.014L302.885 284.386L310.93 279.672L318.976 284.386L327.021 279.672L318.976 274.958L327.021 270.245L335.067 274.958L343.112 270.245L334.282 265.138C336.833 262.192 336.44 258.657 333.693 255.907C330.75 253.158 325.648 251.194 319.957 251.194C319.761 247.855 316.621 244.909 311.715 243.141C306.613 241.374 300.53 241.177 295.428 242.552ZM278.553 260.817L298.764 249.23C300.923 247.855 304.651 247.855 306.81 249.23C308.968 250.604 308.968 252.568 306.81 253.943L286.598 265.531L278.553 260.817ZM322.9 263.174L302.689 274.762L294.643 270.048L314.855 258.461C317.013 257.086 320.742 257.086 322.9 258.461C325.255 259.835 325.255 261.799 322.9 263.174Z" fill="white"/>
<g opacity="0.5">
<path opacity="0.5" d="M377.06 176.758H376.667C376.471 176.758 376.471 176.561 376.471 176.561V176.169C376.471 175.972 376.667 175.972 376.667 175.972H377.06C377.256 175.972 377.256 176.169 377.256 176.169V176.561C377.256 176.561 377.256 176.758 377.06 176.758Z" fill="white"/>
<path opacity="0.5" d="M372.939 234.893H372.547C372.35 234.893 372.35 234.696 372.35 234.696V234.303C372.35 234.107 372.547 234.107 372.547 234.107H372.939C373.135 234.107 373.135 234.303 373.135 234.303V234.696C373.135 234.696 373.135 234.893 372.939 234.893Z" fill="white"/>
<path opacity="0.5" d="M346.252 222.323H345.859C345.663 222.323 345.663 222.126 345.663 222.126V221.734C345.663 221.537 345.859 221.537 345.859 221.537H346.252C346.448 221.537 346.448 221.734 346.448 221.734V221.93C346.644 222.126 346.448 222.323 346.252 222.323Z" fill="white"/>
<path opacity="0.5" d="M328.395 226.447H328.003C327.806 226.447 327.806 226.251 327.806 226.251V225.858C327.806 225.662 328.003 225.662 328.003 225.662H328.395C328.591 225.662 328.591 225.858 328.591 225.858V226.251C328.788 226.251 328.591 226.447 328.395 226.447Z" fill="white"/>
<path opacity="0.5" d="M319.172 207.986L318.78 207.789C318.584 207.789 318.584 207.593 318.584 207.396L318.78 207.004C318.78 206.807 318.976 206.807 319.172 206.807L319.565 207.004C319.761 207.004 319.761 207.2 319.761 207.396L319.565 207.789C319.565 207.986 319.369 207.986 319.172 207.986Z" fill="white"/>
<path opacity="0.5" d="M305.044 243.141L304.651 242.945C304.455 242.945 304.455 242.749 304.455 242.552L304.651 242.159C304.651 241.963 304.847 241.963 305.044 241.963L305.436 242.159C305.632 242.159 305.632 242.356 305.632 242.552L305.436 242.945C305.436 243.141 305.24 243.141 305.044 243.141Z" fill="white"/>
<path opacity="0.5" d="M283.655 192.47L283.262 192.273C283.066 192.273 283.066 192.077 283.066 191.88L283.262 191.488C283.262 191.291 283.459 191.291 283.655 191.291L284.047 191.488C284.243 191.488 284.243 191.684 284.243 191.88L284.047 192.273C283.851 192.47 283.655 192.47 283.655 192.47Z" fill="white"/>
<path opacity="0.5" d="M247.549 208.378L247.156 208.182C246.96 208.182 246.96 207.986 246.96 207.789L247.156 207.396C247.156 207.2 247.353 207.2 247.549 207.2L247.941 207.396C248.138 207.396 248.138 207.593 248.138 207.789L247.941 208.182C247.745 208.378 247.745 208.575 247.549 208.378Z" fill="white"/>
<path opacity="0.5" d="M265.209 261.21L264.817 261.014C264.621 261.014 264.621 260.818 264.621 260.621L264.817 260.228C264.817 260.032 265.013 260.032 265.209 260.032L265.602 260.228C265.798 260.228 265.798 260.425 265.798 260.621L265.602 261.014C265.406 261.21 265.406 261.407 265.209 261.21Z" fill="white"/>
<path opacity="0.5" d="M271.881 225.269L271.489 225.072C271.292 225.072 271.292 224.876 271.292 224.68L271.489 224.287C271.489 224.09 271.685 224.09 271.881 224.09L272.273 224.287C272.47 224.287 272.47 224.483 272.47 224.68L272.273 225.072C272.273 225.269 272.077 225.269 271.881 225.269Z" fill="white"/>
<path opacity="0.5" d="M247.549 181.668L247.156 181.471C246.96 181.471 246.96 181.275 246.96 181.078L247.156 180.686C247.156 180.489 247.353 180.489 247.549 180.489L247.941 180.686C248.138 180.686 248.138 180.882 248.138 181.078L247.941 181.471C247.745 181.668 247.745 181.668 247.549 181.668Z" fill="white"/>
<path opacity="0.5" d="M218.899 216.824L218.507 216.627C218.311 216.627 218.311 216.431 218.311 216.234L218.507 215.842C218.507 215.645 218.703 215.645 218.899 215.645L219.292 215.842C219.488 215.842 219.488 216.038 219.488 216.234L219.292 216.627C219.292 216.824 219.095 216.824 218.899 216.824Z" fill="white"/>
<path opacity="0.5" d="M218.899 190.113L218.507 189.917C218.311 189.917 218.311 189.72 218.311 189.524L218.507 189.131C218.507 188.935 218.703 188.935 218.899 188.935L219.292 189.131C219.488 189.131 219.488 189.327 219.488 189.524L219.292 189.917C219.292 190.113 219.095 190.113 218.899 190.113Z" fill="white"/>
<path opacity="0.5" d="M394.917 207.986L394.524 207.789C394.328 207.789 394.328 207.593 394.328 207.396L394.524 207.004C394.524 206.807 394.72 206.807 394.917 206.807L395.309 207.004C395.505 207.004 395.505 207.2 395.505 207.396L395.309 207.789C395.113 207.986 394.917 207.986 394.917 207.986Z" fill="white"/>
<path opacity="0.5" d="M397.271 190.113L396.879 189.917C396.683 189.917 396.683 189.72 396.683 189.524L396.879 189.131C396.879 188.935 397.075 188.935 397.271 188.935L397.664 189.131C397.86 189.131 397.86 189.327 397.86 189.524L397.664 189.917C397.468 190.113 397.271 190.113 397.271 190.113Z" fill="white"/>
<path opacity="0.5" d="M362.146 215.449L361.754 215.252C361.558 215.252 361.558 215.056 361.558 214.859L361.754 214.467C361.754 214.27 361.95 214.27 362.146 214.27L362.539 214.467C362.735 214.467 362.735 214.663 362.735 214.859L362.539 215.252C362.343 215.252 362.146 215.449 362.146 215.449Z" fill="white"/>
<path opacity="0.5" d="M347.429 184.221L347.037 184.025C346.841 184.025 346.841 183.828 346.841 183.632L347.037 183.239C347.037 183.043 347.233 183.043 347.429 183.043L347.822 183.239C348.018 183.239 348.018 183.436 348.018 183.632L347.822 184.025C347.625 184.221 347.429 184.221 347.429 184.221Z" fill="white"/>
<path opacity="0.5" d="M308.38 274.958H307.987C307.791 274.958 307.791 274.762 307.791 274.762V274.369C307.791 274.173 307.987 274.173 307.987 274.173H308.38C308.576 274.173 308.576 274.369 308.576 274.369V274.762C308.576 274.958 308.576 274.958 308.38 274.958Z" fill="white"/>
<path opacity="0.5" d="M352.924 246.087L352.531 245.891C352.335 245.891 352.335 245.695 352.335 245.498L352.531 245.105C352.531 244.909 352.727 244.909 352.924 244.909L353.316 245.105C353.512 245.105 353.512 245.302 353.512 245.498L353.316 245.891C353.316 246.087 353.12 246.087 352.924 246.087Z" fill="white"/>
<path opacity="0.5" d="M248.333 231.75L247.941 231.554C247.745 231.554 247.745 231.358 247.745 231.161L247.941 230.768C247.941 230.572 248.137 230.572 248.333 230.572L248.726 230.768C248.922 230.768 248.922 230.965 248.922 231.161L248.726 231.554C248.726 231.75 248.53 231.75 248.333 231.75Z" fill="white"/>
<path opacity="0.5" d="M325.648 263.96L325.255 263.764C325.059 263.764 325.059 263.567 325.059 263.371L325.255 262.978C325.255 262.781 325.451 262.781 325.648 262.781L326.04 262.978C326.236 262.978 326.236 263.174 326.236 263.371L326.04 263.764C325.844 263.96 325.648 263.96 325.648 263.96Z" fill="white"/>
<path opacity="0.5" d="M334.674 196.398L334.282 196.201C334.086 196.201 334.086 196.005 334.086 195.809L334.282 195.416C334.282 195.219 334.478 195.219 334.674 195.219L335.067 195.416C335.263 195.416 335.263 195.612 335.263 195.809L335.067 196.201C334.87 196.398 334.87 196.594 334.674 196.398Z" fill="white"/>
</g>
<g opacity="0.5">
<path opacity="0.5" d="M326.04 79.9314H325.648C325.452 79.9314 325.452 79.735 325.452 79.735V79.3422C325.452 79.1458 325.648 79.1458 325.648 79.1458H326.04C326.237 79.1458 326.237 79.3422 326.237 79.3422V79.735C326.237 79.9314 326.04 79.9314 326.04 79.9314Z" fill="white"/>
<path opacity="0.5" d="M321.723 138.263H321.331C321.134 138.263 321.134 138.066 321.134 138.066V137.477C321.134 137.281 321.331 137.281 321.331 137.281H321.723C321.919 137.281 321.919 137.477 321.919 137.477V137.87C322.116 138.066 321.919 138.263 321.723 138.263Z" fill="white"/>
<path opacity="0.5" d="M296.998 108.999H296.606C296.41 108.999 296.41 108.803 296.41 108.803V108.41C296.41 108.213 296.606 108.213 296.606 108.213H296.998C297.195 108.213 297.195 108.41 297.195 108.41V108.803L296.998 108.999Z" fill="white"/>
<path opacity="0.5" d="M277.376 129.621H276.983C276.787 129.621 276.787 129.425 276.787 129.425V129.032C276.787 128.835 276.983 128.835 276.983 128.835H277.376C277.572 128.835 277.572 129.032 277.572 129.032V129.425C277.572 129.621 277.376 129.621 277.376 129.621Z" fill="white"/>
<path opacity="0.5" d="M260.892 93.2868L260.5 93.0904C260.303 93.0904 260.303 92.894 260.303 92.6976L260.5 92.3048C260.5 92.1084 260.696 92.1084 260.892 92.1084L261.285 92.3048C261.481 92.3048 261.481 92.5012 261.481 92.6976L261.285 93.0904C261.088 93.2868 261.088 93.4832 260.892 93.2868Z" fill="white"/>
<path opacity="0.5" d="M254.024 146.512L253.632 146.315C253.435 146.315 253.435 146.119 253.435 145.922L253.632 145.53C253.632 145.333 253.828 145.333 254.024 145.333L254.417 145.53C254.613 145.53 254.613 145.726 254.613 145.922L254.417 146.315C254.22 146.512 254.22 146.512 254.024 146.512Z" fill="white"/>
<path opacity="0.5" d="M232.439 95.84L232.047 95.6436C231.85 95.6436 231.85 95.4472 231.85 95.2508L232.047 94.858C232.047 94.6616 232.243 94.6616 232.439 94.6616L232.831 94.858C233.028 94.858 233.028 95.0544 233.028 95.2508L232.831 95.6436C232.635 95.84 232.635 95.84 232.439 95.84Z" fill="white"/>
<path opacity="0.5" d="M214.19 164.58L213.797 164.384C213.601 164.384 213.601 164.187 213.601 163.991L213.797 163.598C213.797 163.402 213.994 163.402 214.19 163.402L214.582 163.598C214.779 163.598 214.779 163.795 214.779 163.991L214.582 164.384C214.386 164.58 214.19 164.58 214.19 164.58Z" fill="white"/>
<path opacity="0.5" d="M220.862 128.443L220.469 128.246C220.273 128.246 220.273 128.05 220.273 127.853L220.469 127.461C220.469 127.264 220.665 127.264 220.862 127.264L221.254 127.461C221.45 127.461 221.45 127.657 221.45 127.853L221.254 128.246C221.058 128.443 221.058 128.639 220.862 128.443Z" fill="white"/>
<path opacity="0.5" d="M343.701 111.159L343.308 110.963C343.112 110.963 343.112 110.767 343.112 110.57L343.308 110.177C343.308 109.981 343.505 109.981 343.701 109.981L344.093 110.177C344.289 110.177 344.289 110.374 344.289 110.57L344.093 110.963C344.093 111.159 343.897 111.356 343.701 111.159Z" fill="white"/>
<path opacity="0.5" d="M359.792 147.101L359.399 146.904C359.203 146.904 359.203 146.708 359.203 146.512L359.399 146.119C359.399 145.922 359.595 145.922 359.792 145.922L360.184 146.119C360.38 146.119 360.38 146.315 360.38 146.512L360.184 146.904C359.988 147.101 359.792 147.297 359.792 147.101Z" fill="white"/>
<path opacity="0.5" d="M397.271 143.762L396.879 143.566C396.682 143.566 396.682 143.369 396.682 143.173L396.879 142.78C396.879 142.584 397.075 142.584 397.271 142.584L397.664 142.78C397.86 142.78 397.86 142.977 397.86 143.173L397.664 143.566C397.664 143.762 397.467 143.959 397.271 143.762Z" fill="white"/>
<path opacity="0.5" d="M422.192 132.763L421.8 132.567C421.604 132.567 421.604 132.371 421.604 132.174L421.8 131.781C421.8 131.585 421.996 131.585 422.192 131.585L422.585 131.781C422.781 131.781 422.781 131.978 422.781 132.174L422.585 132.567C422.389 132.763 422.192 132.763 422.192 132.763Z" fill="white"/>
<path opacity="0.5" d="M257.36 178.329H256.968C256.771 178.329 256.771 178.132 256.771 178.132V177.739C256.771 177.543 256.968 177.543 256.968 177.543H257.36C257.556 177.543 257.556 177.739 257.556 177.739V178.132L257.36 178.329Z" fill="white"/>
<path opacity="0.5" d="M301.904 149.261L301.512 149.065C301.315 149.065 301.315 148.868 301.315 148.672L301.512 148.279C301.512 148.083 301.708 148.083 301.904 148.083L302.297 148.279C302.493 148.279 302.493 148.476 302.493 148.672L302.297 149.065C302.1 149.261 301.904 149.458 301.904 149.261Z" fill="white"/>
<path opacity="0.5" d="M197.314 134.924L196.922 134.728C196.725 134.728 196.725 134.531 196.725 134.335L196.922 133.942C196.922 133.746 197.118 133.746 197.314 133.746L197.706 133.942C197.903 133.942 197.903 134.139 197.903 134.335L197.706 134.728C197.51 134.924 197.314 134.924 197.314 134.924Z" fill="white"/>
<path opacity="0.5" d="M274.432 167.33L274.04 167.134C273.843 167.134 273.843 166.937 273.843 166.741L274.04 166.348C274.04 166.152 274.236 166.152 274.432 166.152L274.825 166.348C275.021 166.348 275.021 166.545 275.021 166.741L274.825 167.134C274.628 167.33 274.628 167.33 274.432 167.33Z" fill="white"/>
<path opacity="0.5" d="M318.584 102.518L318.191 102.321C317.995 102.321 317.995 102.125 317.995 101.929L318.191 101.536C318.191 101.339 318.387 101.339 318.584 101.339L318.976 101.536C319.172 101.536 319.172 101.732 319.172 101.929L318.976 102.321C318.78 102.518 318.78 102.518 318.584 102.518Z" fill="white"/>
</g>
<path opacity="0.8" d="M352.139 295.188C325.059 310.9 280.908 310.9 253.828 295.188C239.7 286.939 232.832 276.137 233.42 265.335C216.348 232.928 191.623 202.29 146.098 120.587C220.469 35.1519 337.618 15.9045 450.449 106.838C462.027 116.266 382.162 244.712 372.547 265.335C373.135 276.137 366.463 287.135 352.139 295.188Z" fill="url(#paint21_linear_127_3)"/>
</g>
<defs>
<linearGradient id="paint0_linear_127_3" x1="298.798" y1="163.343" x2="298.798" y2="251.559" gradientUnits="userSpaceOnUse">
<stop offset="0.0873016" stop-color="#EB5757"/>
<stop offset="0.9709" stop-color="#3C53D7"/>
</linearGradient>
<linearGradient id="paint1_linear_127_3" x1="292.3" y1="166.956" x2="292.3" y2="250.982" gradientUnits="userSpaceOnUse">
<stop offset="0.0873016" stop-color="#EB5757"/>
<stop offset="0.9709" stop-color="#3C53D7"/>
</linearGradient>
<linearGradient id="paint2_linear_127_3" x1="363.038" y1="99.0437" x2="363.038" y2="154.044" gradientUnits="userSpaceOnUse">
<stop offset="0.0873016" stop-color="#EB5757"/>
<stop offset="0.9709" stop-color="#3C53D7"/>
</linearGradient>
<linearGradient id="paint3_linear_127_3" x1="358.987" y1="101.296" x2="358.987" y2="153.684" gradientUnits="userSpaceOnUse">
<stop offset="0.0873016" stop-color="#EB5757"/>
<stop offset="0.9709" stop-color="#3C53D7"/>
</linearGradient>
<linearGradient id="paint4_linear_127_3" x1="239.15" y1="55.523" x2="239.15" y2="105.234" gradientUnits="userSpaceOnUse">
<stop offset="0.0873016" stop-color="#EB5757"/>
<stop offset="0.9709" stop-color="#3C53D7"/>
</linearGradient>
<linearGradient id="paint5_linear_127_3" x1="235.488" y1="57.5586" x2="235.488" y2="104.909" gradientUnits="userSpaceOnUse">
<stop offset="0.0873016" stop-color="#EB5757"/>
<stop offset="0.9709" stop-color="#3C53D7"/>
</linearGradient>
<linearGradient id="paint6_linear_127_3" x1="466.682" y1="454.765" x2="175.435" y2="363.391" gradientUnits="userSpaceOnUse">
<stop stop-color="#000053"/>
<stop offset="0.5425" stop-color="#23007F"/>
<stop offset="1" stop-color="#4F34D7"/>
</linearGradient>
<linearGradient id="paint7_linear_127_3" x1="300.971" y1="370.642" x2="300.971" y2="537.957" gradientUnits="userSpaceOnUse">
<stop offset="0.0873016" stop-color="#EB5757"/>
<stop offset="0.9709" stop-color="#3C53D7"/>
</linearGradient>
<linearGradient id="paint8_linear_127_3" x1="248.036" y1="321.198" x2="373.372" y2="477.38" gradientUnits="userSpaceOnUse">
<stop stop-color="#3C53D7"/>
<stop offset="1" stop-color="#1A1B6E"/>
</linearGradient>
<radialGradient id="paint9_radial_127_3" cx="0" cy="0" r="1" gradientUnits="userSpaceOnUse" gradientTransform="translate(299.685 389.914) scale(77.6435 65.563)">
<stop stop-color="#2F3C9E"/>
<stop offset="0.1211" stop-color="#253184"/>
<stop offset="0.2995" stop-color="#192364"/>
<stop offset="0.4722" stop-color="#11194D"/>
<stop offset="0.635" stop-color="#0C1340"/>
<stop offset="0.7778" stop-color="#0A113B"/>
<stop offset="1" stop-color="#000020"/>
</radialGradient>
<radialGradient id="paint10_radial_127_3" cx="0" cy="0" r="1" gradientUnits="userSpaceOnUse" gradientTransform="translate(301.799 387.013) scale(65.3706 55.1997)">
<stop stop-color="#2F3C9E"/>
<stop offset="0.1211" stop-color="#253184"/>
<stop offset="0.2995" stop-color="#192364"/>
<stop offset="0.4722" stop-color="#11194D"/>
<stop offset="0.635" stop-color="#0C1340"/>
<stop offset="0.7778" stop-color="#0A113B"/>
<stop offset="1" stop-color="#000020"/>
</radialGradient>
<linearGradient id="paint11_linear_127_3" x1="302.809" y1="380.615" x2="302.809" y2="440.063" gradientUnits="userSpaceOnUse">
<stop offset="0.0873016" stop-color="#EB5757"/>
<stop offset="0.9709" stop-color="#3C53D7"/>
</linearGradient>
<linearGradient id="paint12_linear_127_3" x1="302.908" y1="350.234" x2="302.908" y2="428.858" gradientUnits="userSpaceOnUse">
<stop offset="0.0873016" stop-color="#EB5757"/>
<stop offset="0.9709" stop-color="#3C53D7"/>
</linearGradient>
<linearGradient id="paint13_linear_127_3" x1="302.809" y1="357.833" x2="302.809" y2="417.281" gradientUnits="userSpaceOnUse">
<stop offset="0.0873016" stop-color="#EB5757"/>
<stop offset="0.9709" stop-color="#3C53D7"/>
</linearGradient>
<linearGradient id="paint14_linear_127_3" x1="302.908" y1="327.255" x2="302.908" y2="405.88" gradientUnits="userSpaceOnUse">
<stop offset="0.0873016" stop-color="#EB5757"/>
<stop offset="0.9709" stop-color="#3C53D7"/>
</linearGradient>
<linearGradient id="paint15_linear_127_3" x1="302.809" y1="334.854" x2="302.809" y2="394.302" gradientUnits="userSpaceOnUse">
<stop offset="0.0873016" stop-color="#EB5757"/>
<stop offset="0.9709" stop-color="#3C53D7"/>
</linearGradient>
<linearGradient id="paint16_linear_127_3" x1="302.908" y1="304.276" x2="302.908" y2="382.901" gradientUnits="userSpaceOnUse">
<stop offset="0.0873016" stop-color="#EB5757"/>
<stop offset="0.9709" stop-color="#3C53D7"/>
</linearGradient>
<linearGradient id="paint17_linear_127_3" x1="302.809" y1="311.874" x2="302.809" y2="371.322" gradientUnits="userSpaceOnUse">
<stop offset="0.0873016" stop-color="#EB5757"/>
<stop offset="0.9709" stop-color="#3C53D7"/>
</linearGradient>
<linearGradient id="paint18_linear_127_3" x1="302.809" y1="281.493" x2="302.809" y2="360.118" gradientUnits="userSpaceOnUse">
<stop offset="0.0873016" stop-color="#EB5757"/>
<stop offset="0.9709" stop-color="#3C53D7"/>
</linearGradient>
<linearGradient id="paint19_linear_127_3" x1="302.809" y1="289.092" x2="302.809" y2="348.54" gradientUnits="userSpaceOnUse">
<stop offset="0.0873016" stop-color="#EB5757"/>
<stop offset="0.9709" stop-color="#3C53D7"/>
</linearGradient>
<linearGradient id="paint20_linear_127_3" x1="302.809" y1="258.514" x2="302.809" y2="337.139" gradientUnits="userSpaceOnUse">
<stop offset="0.0873016" stop-color="#EB5757"/>
<stop offset="0.9709" stop-color="#3C53D7"/>
</linearGradient>
<linearGradient id="paint21_linear_127_3" x1="296.417" y1="69.0223" x2="310.099" y2="321.906" gradientUnits="userSpaceOnUse">
<stop stop-color="#F1EBF9" stop-opacity="0"/>
<stop offset="0.252" stop-color="#F2EEFA" stop-opacity="0"/>
<stop offset="0.2989" stop-color="#F3F0FA" stop-opacity="0"/>
<stop offset="0.4873" stop-color="#EDF9FD" stop-opacity="0.137"/>
<stop offset="0.5741" stop-color="#E9FFFF" stop-opacity="0.2"/>
<stop offset="1" stop-color="#E6FFFF"/>
</linearGradient>
<clipPath id="clip0_127_3">
<rect width="693.368" height="348.943" fill="white" transform="translate(0 230.69)"/>
</clipPath>
</defs>
</svg>
